<mxfile host="app.diagrams.net" agent="Mozilla/5.0 (Windows NT 10.0; Win64; x64) AppleWebKit/537.36 (KHTML, like Gecko) Chrome/118.0.0.0 Safari/537.36" version="27.2.0">
  <diagram name="第 1 页" id="Xib1_xjiFLL8VImp3nhB">
    <mxGraphModel dx="1025" dy="447" grid="1" gridSize="10" guides="1" tooltips="1" connect="1" arrows="1" fold="1" page="1" pageScale="1" pageWidth="827" pageHeight="1169" math="0" shadow="0">
      <root>
        <mxCell id="0" />
        <mxCell id="1" parent="0" />
        <mxCell id="aEvAg1gTDenpue3lDs_C-1" value="" style="whiteSpace=wrap;html=1;aspect=fixed;" vertex="1" parent="1">
          <mxGeometry x="60" y="330" width="270" height="270" as="geometry" />
        </mxCell>
        <mxCell id="aEvAg1gTDenpue3lDs_C-3" value="" style="rounded=0;whiteSpace=wrap;html=1;" vertex="1" parent="1">
          <mxGeometry x="60" y="330" width="270" height="70" as="geometry" />
        </mxCell>
        <mxCell id="aEvAg1gTDenpue3lDs_C-4" value="&lt;pre style=&quot;font-family: var(--ds-font-family-code); overflow: auto; padding: calc(var(--ds-md-zoom)*8px)calc(var(--ds-md-zoom)*12px); text-wrap: wrap; word-break: break-all; color: rgb(73, 73, 73); font-size: 12.573px; text-align: start; margin-top: 0px !important; margin-bottom: 0px !important;&quot;&gt;&lt;b&gt;堆(Heap) &lt;/b&gt;&lt;/pre&gt;" style="text;strokeColor=none;align=center;fillColor=none;html=1;verticalAlign=middle;whiteSpace=wrap;rounded=0;" vertex="1" parent="1">
          <mxGeometry x="165" y="350" width="60" height="30" as="geometry" />
        </mxCell>
        <mxCell id="aEvAg1gTDenpue3lDs_C-5" value="" style="rounded=0;whiteSpace=wrap;html=1;direction=south;" vertex="1" parent="1">
          <mxGeometry x="60" y="400" width="140" height="200" as="geometry" />
        </mxCell>
        <mxCell id="aEvAg1gTDenpue3lDs_C-6" value="&lt;pre style=&quot;font-family: var(--ds-font-family-code); overflow: auto; padding: calc(var(--ds-md-zoom)*8px)calc(var(--ds-md-zoom)*12px); text-wrap: wrap; word-break: break-all; color: rgb(73, 73, 73); font-size: 12.573px; text-align: start; margin-top: 0px !important; margin-bottom: 0px !important;&quot;&gt;&lt;b&gt;年轻代(Young Gen)&lt;/b&gt;&lt;/pre&gt;" style="text;strokeColor=none;align=center;fillColor=none;html=1;verticalAlign=middle;whiteSpace=wrap;rounded=0;" vertex="1" parent="1">
          <mxGeometry x="70" y="410" width="120" height="30" as="geometry" />
        </mxCell>
        <mxCell id="aEvAg1gTDenpue3lDs_C-7" value="&lt;pre style=&quot;font-family: var(--ds-font-family-code); overflow: auto; padding: calc(var(--ds-md-zoom)*8px)calc(var(--ds-md-zoom)*12px); text-wrap: wrap; word-break: break-all; color: rgb(73, 73, 73); font-size: 12.573px; text-align: start; margin-top: 0px !important; margin-bottom: 0px !important;&quot;&gt;&lt;b&gt;老年代(Old Gen)&lt;/b&gt;&lt;/pre&gt;" style="text;strokeColor=none;align=center;fillColor=none;html=1;verticalAlign=middle;whiteSpace=wrap;rounded=0;" vertex="1" parent="1">
          <mxGeometry x="200" y="485" width="120" height="30" as="geometry" />
        </mxCell>
        <mxCell id="aEvAg1gTDenpue3lDs_C-8" value="" style="rounded=0;whiteSpace=wrap;html=1;" vertex="1" parent="1">
          <mxGeometry x="60" y="450" width="70" height="150" as="geometry" />
        </mxCell>
        <mxCell id="aEvAg1gTDenpue3lDs_C-10" value="" style="rounded=0;whiteSpace=wrap;html=1;" vertex="1" parent="1">
          <mxGeometry x="130" y="450" width="70" height="150" as="geometry" />
        </mxCell>
        <mxCell id="aEvAg1gTDenpue3lDs_C-11" value="&lt;pre style=&quot;font-family: var(--ds-font-family-code); overflow: auto; padding: calc(var(--ds-md-zoom)*8px)calc(var(--ds-md-zoom)*12px); text-wrap: wrap; word-break: break-all; color: rgb(73, 73, 73); font-size: 12.573px; text-align: start; margin-top: 0px !important; margin-bottom: 0px !important;&quot;&gt;&lt;b&gt;Eden&lt;/b&gt;&lt;/pre&gt;" style="text;strokeColor=none;align=center;fillColor=none;html=1;verticalAlign=middle;whiteSpace=wrap;rounded=0;" vertex="1" parent="1">
          <mxGeometry x="65" y="510" width="60" height="30" as="geometry" />
        </mxCell>
        <mxCell id="aEvAg1gTDenpue3lDs_C-12" value="&lt;b&gt;S0、S1&lt;/b&gt;" style="text;strokeColor=none;align=center;fillColor=none;html=1;verticalAlign=middle;whiteSpace=wrap;rounded=0;" vertex="1" parent="1">
          <mxGeometry x="135" y="510" width="60" height="30" as="geometry" />
        </mxCell>
        <mxCell id="aEvAg1gTDenpue3lDs_C-13" value="&lt;b&gt;内存分代划分&lt;/b&gt;" style="text;strokeColor=none;align=center;fillColor=none;html=1;verticalAlign=middle;whiteSpace=wrap;rounded=0;" vertex="1" parent="1">
          <mxGeometry x="155" y="290" width="80" height="30" as="geometry" />
        </mxCell>
        <mxCell id="aEvAg1gTDenpue3lDs_C-14" value="&lt;b&gt;分代收集过程&lt;/b&gt;" style="text;strokeColor=none;align=center;fillColor=none;html=1;verticalAlign=middle;whiteSpace=wrap;rounded=0;" vertex="1" parent="1">
          <mxGeometry x="510" y="290" width="80" height="30" as="geometry" />
        </mxCell>
        <mxCell id="aEvAg1gTDenpue3lDs_C-19" value="&lt;pre style=&quot;font-family: var(--ds-font-family-code); overflow: auto; padding: calc(var(--ds-md-zoom)*8px)calc(var(--ds-md-zoom)*12px); text-wrap: wrap; word-break: break-all; color: rgb(73, 73, 73); font-size: 12.573px; text-align: start; margin-top: 0px !important; margin-bottom: 0px !important;&quot;&gt;&lt;b&gt;对象分配&lt;/b&gt;&lt;/pre&gt;" style="text;strokeColor=none;align=center;fillColor=none;html=1;verticalAlign=middle;whiteSpace=wrap;rounded=0;" vertex="1" parent="1">
          <mxGeometry x="400" y="330" width="60" height="30" as="geometry" />
        </mxCell>
        <mxCell id="aEvAg1gTDenpue3lDs_C-21" value="" style="group" vertex="1" connectable="0" parent="1">
          <mxGeometry x="400" y="360" width="80" height="50" as="geometry" />
        </mxCell>
        <mxCell id="aEvAg1gTDenpue3lDs_C-17" value="" style="rounded=0;whiteSpace=wrap;html=1;" vertex="1" parent="aEvAg1gTDenpue3lDs_C-21">
          <mxGeometry width="80" height="50" as="geometry" />
        </mxCell>
        <mxCell id="aEvAg1gTDenpue3lDs_C-18" value="&lt;pre style=&quot;font-family: var(--ds-font-family-code); overflow: auto; padding: calc(var(--ds-md-zoom)*8px)calc(var(--ds-md-zoom)*12px); text-wrap: wrap; word-break: break-all; color: rgb(73, 73, 73); font-size: 12.573px; text-align: start; margin-top: 0px !important; margin-bottom: 0px !important;&quot;&gt;&lt;b&gt;Eden&lt;/b&gt;&lt;/pre&gt;" style="text;strokeColor=none;align=center;fillColor=none;html=1;verticalAlign=middle;whiteSpace=wrap;rounded=0;" vertex="1" parent="aEvAg1gTDenpue3lDs_C-21">
          <mxGeometry x="10" y="10" width="60" height="30" as="geometry" />
        </mxCell>
        <mxCell id="aEvAg1gTDenpue3lDs_C-22" value="" style="group" vertex="1" connectable="0" parent="1">
          <mxGeometry x="400" y="460" width="80" height="50" as="geometry" />
        </mxCell>
        <mxCell id="aEvAg1gTDenpue3lDs_C-23" value="" style="rounded=0;whiteSpace=wrap;html=1;" vertex="1" parent="aEvAg1gTDenpue3lDs_C-22">
          <mxGeometry width="80" height="50" as="geometry" />
        </mxCell>
        <mxCell id="aEvAg1gTDenpue3lDs_C-24" value="&lt;pre style=&quot;font-family: var(--ds-font-family-code); overflow: auto; padding: calc(var(--ds-md-zoom)*8px)calc(var(--ds-md-zoom)*12px); text-wrap: wrap; word-break: break-all; color: rgb(73, 73, 73); font-size: 12.573px; text-align: start; margin-top: 0px !important; margin-bottom: 0px !important;&quot;&gt;&lt;b&gt;Eden&lt;/b&gt;&lt;/pre&gt;" style="text;strokeColor=none;align=center;fillColor=none;html=1;verticalAlign=middle;whiteSpace=wrap;rounded=0;" vertex="1" parent="aEvAg1gTDenpue3lDs_C-22">
          <mxGeometry x="10" y="10" width="60" height="30" as="geometry" />
        </mxCell>
        <mxCell id="aEvAg1gTDenpue3lDs_C-26" value="" style="rounded=0;whiteSpace=wrap;html=1;" vertex="1" parent="1">
          <mxGeometry x="620" y="460" width="80" height="50" as="geometry" />
        </mxCell>
        <mxCell id="aEvAg1gTDenpue3lDs_C-27" value="&lt;pre style=&quot;font-family: var(--ds-font-family-code); overflow: auto; padding: calc(var(--ds-md-zoom)*8px)calc(var(--ds-md-zoom)*12px); text-wrap: wrap; word-break: break-all; color: rgb(73, 73, 73); font-size: 12.573px; text-align: start; margin-top: 0px !important; margin-bottom: 0px !important;&quot;&gt;&lt;b style=&quot;color: rgb(0, 0, 0); font-size: 12px; text-align: center; white-space-collapse: collapse;&quot;&gt;S0&lt;/b&gt;&lt;br&gt;&lt;/pre&gt;" style="text;strokeColor=none;align=center;fillColor=none;html=1;verticalAlign=middle;whiteSpace=wrap;rounded=0;" vertex="1" parent="1">
          <mxGeometry x="630" y="470" width="60" height="30" as="geometry" />
        </mxCell>
        <mxCell id="aEvAg1gTDenpue3lDs_C-44" style="edgeStyle=orthogonalEdgeStyle;rounded=0;orthogonalLoop=1;jettySize=auto;html=1;exitX=0.5;exitY=1;exitDx=0;exitDy=0;entryX=1;entryY=0.5;entryDx=0;entryDy=0;" edge="1" parent="1" source="aEvAg1gTDenpue3lDs_C-29" target="aEvAg1gTDenpue3lDs_C-39">
          <mxGeometry relative="1" as="geometry" />
        </mxCell>
        <mxCell id="aEvAg1gTDenpue3lDs_C-29" value="" style="rounded=0;whiteSpace=wrap;html=1;" vertex="1" parent="1">
          <mxGeometry x="620" y="540" width="80" height="50" as="geometry" />
        </mxCell>
        <mxCell id="aEvAg1gTDenpue3lDs_C-30" value="&lt;pre style=&quot;font-family: var(--ds-font-family-code); overflow: auto; padding: calc(var(--ds-md-zoom)*8px)calc(var(--ds-md-zoom)*12px); text-wrap: wrap; word-break: break-all; color: rgb(73, 73, 73); font-size: 12.573px; text-align: start; margin-top: 0px !important; margin-bottom: 0px !important;&quot;&gt;&lt;b style=&quot;color: rgb(0, 0, 0); font-size: 12px; text-align: center; white-space-collapse: collapse;&quot;&gt;S1&lt;/b&gt;&lt;br&gt;&lt;/pre&gt;" style="text;strokeColor=none;align=center;fillColor=none;html=1;verticalAlign=middle;whiteSpace=wrap;rounded=0;" vertex="1" parent="1">
          <mxGeometry x="630" y="550" width="65" height="30" as="geometry" />
        </mxCell>
        <mxCell id="aEvAg1gTDenpue3lDs_C-34" style="edgeStyle=orthogonalEdgeStyle;rounded=0;orthogonalLoop=1;jettySize=auto;html=1;entryX=0;entryY=0.5;entryDx=0;entryDy=0;" edge="1" parent="1" source="aEvAg1gTDenpue3lDs_C-24" target="aEvAg1gTDenpue3lDs_C-27">
          <mxGeometry relative="1" as="geometry" />
        </mxCell>
        <mxCell id="aEvAg1gTDenpue3lDs_C-35" value="&lt;pre style=&quot;font-family: var(--ds-font-family-code); overflow: auto; padding: calc(var(--ds-md-zoom)*8px)calc(var(--ds-md-zoom)*12px); text-wrap: wrap; word-break: break-all; color: rgb(73, 73, 73); font-size: 12.573px; text-align: start; margin-top: 0px !important; margin-bottom: 0px !important;&quot;&gt;&lt;b&gt;存活对象&lt;/b&gt;&lt;/pre&gt;" style="text;strokeColor=none;align=center;fillColor=none;html=1;verticalAlign=middle;whiteSpace=wrap;rounded=0;" vertex="1" parent="1">
          <mxGeometry x="520" y="455" width="60" height="30" as="geometry" />
        </mxCell>
        <mxCell id="aEvAg1gTDenpue3lDs_C-37" value="&lt;pre style=&quot;font-family: var(--ds-font-family-code); overflow: auto; padding: calc(var(--ds-md-zoom)*8px)calc(var(--ds-md-zoom)*12px); text-wrap: wrap; word-break: break-all; color: rgb(73, 73, 73); font-size: 12.573px; text-align: start; margin-top: 0px !important; margin-bottom: 0px !important;&quot;&gt;&lt;b&gt;Eden区满时触发Minor GC&lt;/b&gt;&lt;/pre&gt;" style="text;strokeColor=none;align=center;fillColor=none;html=1;verticalAlign=middle;whiteSpace=wrap;rounded=0;" vertex="1" parent="1">
          <mxGeometry x="400" y="430" width="160" height="30" as="geometry" />
        </mxCell>
        <mxCell id="aEvAg1gTDenpue3lDs_C-39" value="" style="rounded=0;whiteSpace=wrap;html=1;" vertex="1" parent="1">
          <mxGeometry x="400" y="620" width="190" height="80" as="geometry" />
        </mxCell>
        <mxCell id="aEvAg1gTDenpue3lDs_C-41" value="&lt;pre style=&quot;font-family: var(--ds-font-family-code); overflow: auto; padding: calc(var(--ds-md-zoom)*8px)calc(var(--ds-md-zoom)*12px); text-wrap: wrap; word-break: break-all; color: rgb(73, 73, 73); font-size: 12.573px; text-align: start; margin-top: 0px !important; margin-bottom: 0px !important;&quot;&gt;&lt;b&gt;老年代(Old Gen)&lt;/b&gt;&lt;/pre&gt;" style="text;strokeColor=none;align=center;fillColor=none;html=1;verticalAlign=middle;whiteSpace=wrap;rounded=0;" vertex="1" parent="1">
          <mxGeometry x="435" y="645" width="120" height="30" as="geometry" />
        </mxCell>
        <mxCell id="aEvAg1gTDenpue3lDs_C-43" value="&lt;pre style=&quot;font-family: var(--ds-font-family-code); overflow: auto; padding: calc(var(--ds-md-zoom)*8px)calc(var(--ds-md-zoom)*12px); text-wrap: wrap; word-break: break-all; color: rgb(73, 73, 73); font-size: 12.573px; text-align: start; margin-top: 0px !important; margin-bottom: 0px !important;&quot;&gt;&lt;b&gt;对象年龄增长（每次Minor GC存活+1）&lt;br&gt;当年龄达到阈值（默认15）时晋升到老年代&lt;/b&gt;&lt;/pre&gt;" style="text;strokeColor=none;align=center;fillColor=none;html=1;verticalAlign=middle;whiteSpace=wrap;rounded=0;" vertex="1" parent="1">
          <mxGeometry x="370" y="580" width="250" height="30" as="geometry" />
        </mxCell>
        <mxCell id="aEvAg1gTDenpue3lDs_C-45" value="&lt;pre style=&quot;font-family: var(--ds-font-family-code); overflow: auto; padding: calc(var(--ds-md-zoom)*8px)calc(var(--ds-md-zoom)*12px); text-wrap: wrap; word-break: break-all; color: rgb(73, 73, 73); font-size: 12.573px; text-align: start; margin-top: 0px !important; margin-bottom: 0px !important;&quot;&gt;&lt;b&gt;老年代空间不足时触发Major GC/Full GC&lt;/b&gt;&lt;/pre&gt;" style="text;strokeColor=none;align=center;fillColor=none;html=1;verticalAlign=middle;whiteSpace=wrap;rounded=0;" vertex="1" parent="1">
          <mxGeometry x="370" y="710" width="255" height="30" as="geometry" />
        </mxCell>
      </root>
    </mxGraphModel>
  </diagram>
</mxfile>
